ffmpeg version 2.8.11-0ubuntu0.16.04.1 Copyright (c) 2000-2017 the FFmpeg developers
  built with gcc 5.4.0 (Ubuntu 5.4.0-6ubuntu1~16.04.4) 20160609
  configuration: --prefix=/usr --extra-version=0ubuntu0.16.04.1 --build-suffix=-ffmpeg --toolchain=hardened --libdir=/usr/lib/x86_64-linux-gnu --incdir=/usr/include/x86_64-linux-gnu --cc=cc --cxx=g++ --enable-gpl --enable-shared --disable-stripping --disable-decoder=libopenjpeg --disable-decoder=libschroedinger --enable-avresample --enable-avisynth --enable-gnutls --enable-ladspa --enable-libass --enable-libbluray --enable-libbs2b --enable-libcaca --enable-libcdio --enable-libflite --enable-libfontconfig --enable-libfreetype --enable-libfribidi --enable-libgme --enable-libgsm --enable-libmodplug --enable-libmp3lame --enable-libopenjpeg --enable-libopus --enable-libpulse --enable-librtmp --enable-libschroedinger --enable-libshine --enable-libsnappy --enable-libsoxr --enable-libspeex --enable-libssh --enable-libtheora --enable-libtwolame --enable-libvorbis --enable-libvpx --enable-libwavpack --enable-libwebp --enable-libx265 --enable-libxvid --enable-libzvbi --enable-openal --enable-opengl --enable-x11grab --enable-libdc1394 --enable-libiec61883 --enable-libzmq --enable-frei0r --enable-libx264 --enable-libopencv
  libavutil      54. 31.100 / 54. 31.100
  libavcodec     56. 60.100 / 56. 60.100
  libavformat    56. 40.101 / 56. 40.101
  libavdevice    56.  4.100 / 56.  4.100
  libavfilter     5. 40.101 /  5. 40.101
  libavresample   2.  1.  0 /  2.  1.  0
  libswscale      3.  1.101 /  3.  1.101
  libswresample   1.  2.101 /  1.  2.101
  libpostproc    53.  3.100 / 53.  3.100
Input #0, image2pipe, from 'pipe:':
  Duration: N/A, bitrate: N/A
    Stream #0:0: Video: ppm, rgb24, 320x240, 24 fps, 24 tbr, 24 tbn, 24 tbc
[libx264 @ 0x267c8c0] using cpu capabilities: MMX2 SSE2Fast SSSE3 SSE4.2 AVX LZCNT BMI1 SlowPshufb
[libx264 @ 0x267c8c0] profile High, level 1.3
[libx264 @ 0x267c8c0] 264 - core 148 r2643 5c65704 - H.264/MPEG-4 AVC codec - Copyleft 2003-2015 - http://www.videolan.org/x264.html - options: cabac=1 ref=3 deblock=1:0:0 analyse=0x3:0x113 me=hex subme=7 psy=1 psy_rd=1.00:0.00 mixed_ref=1 me_range=16 chroma_me=1 trellis=1 8x8dct=1 cqm=0 deadzone=21,11 fast_pskip=1 chroma_qp_offset=-2 threads=6 lookahead_threads=1 sliced_threads=0 nr=0 decimate=1 interlaced=0 bluray_compat=0 constrained_intra=0 bframes=3 b_pyramid=2 b_adapt=1 b_bias=0 direct=1 weightb=1 open_gop=0 weightp=2 keyint=250 keyint_min=24 scenecut=40 intra_refresh=0 rc_lookahead=40 rc=abr mbtree=1 bitrate=400 ratetol=1.0 qcomp=0.60 qpmin=0 qpmax=69 qpstep=4 ip_ratio=1.40 aq=1:1.00
Output #0, mp4, to './mission_records/eebaee17-9d25-4ba4-9044-68ac7488f376/video.mp4':
  Metadata:
    encoder         : Lavf56.40.101
    Stream #0:0: Video: h264 (libx264) ([33][0][0][0] / 0x0021), yuv420p, 320x240, q=-1--1, 400 kb/s, 24 fps, 12288 tbn, 24 tbc
    Metadata:
      encoder         : Lavc56.60.100 libx264
Stream mapping:
  Stream #0:0 -> #0:0 (ppm (native) -> h264 (libx264))
frame=   34 fps=0.0 q=0.0 size=       0kB time=00:00:00.00 bitrate=N/A    frame=   44 fps= 42 q=0.0 size=       0kB time=00:00:00.00 bitrate=N/A    frame=   55 fps= 35 q=26.0 size=       1kB time=00:00:00.12 bitrate=  55.7kbits/s    frame=   65 fps= 31 q=10.0 size=       1kB time=00:00:00.54 bitrate=  15.3kbits/s    frame=   76 fps= 29 q=1.0 size=       4kB time=00:00:01.00 bitrate=  34.6kbits/s    frame=   85 fps= 27 q=0.0 size=       6kB time=00:00:01.37 bitrate=  36.8kbits/s    frame=   95 fps= 26 q=0.0 size=       6kB time=00:00:01.79 bitrate=  29.0kbits/s    frame=  106 fps= 25 q=0.0 size=       8kB time=00:00:02.25 bitrate=  27.9kbits/s    frame=  116 fps= 25 q=0.0 size=       8kB time=00:00:02.66 bitrate=  24.0kbits/s    frame=  127 fps= 24 q=0.0 size=       8kB time=00:00:03.12 bitrate=  21.0kbits/s    frame=  138 fps= 24 q=0.0 size=       9kB time=00:00:03.58 bitrate=  21.4kbits/s    frame=  149 fps= 24 q=0.0 size=      14kB time=00:00:04.04 bitrate=  27.9kbits/s    frame=  159 fps= 23 q=0.0 size=      17kB time=00:00:04.45 bitrate=  30.8kbits/s    frame=  170 fps= 23 q=0.0 size=      22kB time=00:00:04.91 bitrate=  36.0kbits/s    frame=  180 fps= 23 q=0.0 size=      24kB time=00:00:05.33 bitrate=  37.5kbits/s    frame=  191 fps= 23 q=0.0 size=      29kB time=00:00:05.79 bitrate=  41.0kbits/s    frame=  201 fps= 22 q=0.0 size=      29kB time=00:00:06.20 bitrate=  38.8kbits/s    frame=  212 fps= 22 q=0.0 size=      32kB time=00:00:06.66 bitrate=  39.4kbits/s    frame=  223 fps= 22 q=0.0 size=      34kB time=00:00:07.12 bitrate=  38.8kbits/s    frame=  233 fps= 22 q=0.0 size=      38kB time=00:00:07.54 bitrate=  41.2kbits/s    frame=  244 fps= 22 q=0.0 size=      41kB time=00:00:08.00 bitrate=  41.8kbits/s    frame=  255 fps= 22 q=0.0 size=      42kB time=00:00:08.45 bitrate=  40.6kbits/s    frame=  266 fps= 22 q=0.0 size=      45kB time=00:00:08.91 bitrate=  41.1kbits/s    frame=  276 fps= 22 q=0.0 size=      48kB time=00:00:09.33 bitrate=  41.7kbits/s    frame=  287 fps= 22 q=0.0 size=      50kB time=00:00:09.79 bitrate=  42.2kbits/s    frame=  298 fps= 22 q=0.0 size=      54kB time=00:00:10.25 bitrate=  42.9kbits/s    frame=  309 fps= 21 q=0.0 size=      56kB time=00:00:10.70 bitrate=  43.2kbits/s    frame=  319 fps= 21 q=0.0 size=      61kB time=00:00:11.12 bitrate=  44.9kbits/s    frame=  329 fps= 21 q=0.0 size=      63kB time=00:00:11.54 bitrate=  44.5kbits/s    frame=  340 fps= 21 q=0.0 size=      64kB time=00:00:12.00 bitrate=  43.5kbits/s    frame=  351 fps= 21 q=0.0 size=      66kB time=00:00:12.45 bitrate=  43.5kbits/s    frame=  361 fps= 21 q=0.0 size=      67kB time=00:00:12.87 bitrate=  42.6kbits/s    frame=  372 fps= 21 q=0.0 size=      68kB time=00:00:13.33 bitrate=  42.0kbits/s    frame=  382 fps= 21 q=0.0 size=      71kB time=00:00:13.75 bitrate=  42.0kbits/s    frame=  392 fps= 21 q=0.0 size=      71kB time=00:00:14.16 bitrate=  40.9kbits/s    frame=  393 fps= 21 q=-1.0 Lsize=      82kB time=00:00:16.29 bitrate=  41.4kbits/s    
video:77kB audio:0kB subtitle:0kB other streams:0kB global headers:0kB muxing overhead: 7.047999%
[libx264 @ 0x267c8c0] frame I:39    Avg QP: 1.38  size:  1274
[libx264 @ 0x267c8c0] frame P:114   Avg QP: 1.43  size:   178
[libx264 @ 0x267c8c0] frame B:240   Avg QP: 2.75  size:    33
[libx264 @ 0x267c8c0] consecutive B-frames: 14.0%  4.6% 27.5% 53.9%
[libx264 @ 0x267c8c0] mb I  I16..4: 81.4%  6.8% 11.9%
[libx264 @ 0x267c8c0] mb P  I16..4:  5.2%  0.0%  0.7%  P16..4:  1.0%  0.3%  0.2%  0.0%  0.0%    skip:92.6%
[libx264 @ 0x267c8c0] mb B  I16..4:  0.0%  0.0%  0.0%  B16..8:  0.2%  0.1%  0.0%  direct: 0.1%  skip:99.6%  L0:43.0% L1:50.9% BI: 6.1%
[libx264 @ 0x267c8c0] final ratefactor: -18.65
[libx264 @ 0x267c8c0] 8x8 transform intra:5.9% inter:17.3%
[libx264 @ 0x267c8c0] coded y,uvDC,uvAC intra: 6.2% 0.0% 0.0% inter: 0.2% 0.0% 0.0%
[libx264 @ 0x267c8c0] i16 v,h,dc,p: 87% 10%  3%  0%
[libx264 @ 0x267c8c0] i8 v,h,dc,ddl,ddr,vr,hd,vl,hu: 42%  3% 55%  0%  0%  0%  0%  0%  0%
[libx264 @ 0x267c8c0] i4 v,h,dc,ddl,ddr,vr,hd,vl,hu: 56% 18% 17%  3%  2%  0%  2%  1%  1%
[libx264 @ 0x267c8c0] i8c dc,h,v,p: 100%  0%  0%  0%
[libx264 @ 0x267c8c0] Weighted P-Frames: Y:8.8% UV:0.0%
[libx264 @ 0x267c8c0] ref P L0: 91.4%  1.4%  6.8%  0.3%
[libx264 @ 0x267c8c0] ref B L0: 96.3%  2.9%  0.8%
[libx264 @ 0x267c8c0] ref B L1: 98.0%  2.0%
[libx264 @ 0x267c8c0] kb/s:38.10
ame=  570 fps= 21 q=0.0 size=      88kB time=00:00:21.58 bitrate=  33.6kbits/s    frame=  581 fps= 21 q=0.0 size=      89kB time=00:00:22.04 bitrate=  32.9kbits/s    frame=  591 fps= 21 q=0.0 size=      90kB time=00:00:22.45 bitrate=  32.7kbits/s    frame=  602 fps= 21 q=0.0 size=      90kB time=00:00:22.91 bitrate=  32.2kbits/s    frame=  613 fps= 21 q=0.0 size=      91kB time=00:00:23.37 bitrate=  31.9kbits/s    frame=  624 fps= 21 q=0.0 size=      91kB time=00:00:23.83 bitrate=  31.4kbits/s    frame=  635 fps= 21 q=0.0 size=      92kB time=00:00:24.29 bitrate=  30.9kbits/s    frame=  645 fps= 21 q=0.0 size=      93kB time=00:00:24.70 bitrate=  30.7kbits/s    frame=  656 fps= 21 q=0.0 size=      93kB time=00:00:25.16 bitrate=  30.2kbits/s    frame=  667 fps= 21 q=0.0 size=      94kB time=00:00:25.62 bitrate=  30.1kbits/s    frame=  678 fps= 21 q=0.0 size=      94kB time=00:00:26.08 bitrate=  29.6kbits/s    frame=  688 fps= 21 q=0.0 size=      94kB time=00:00:26.50 bitrate=  29.2kbits/s    frame=  699 fps= 21 q=0.0 size=      96kB time=00:00:26.95 bitrate=  29.1kbits/s    frame=  710 fps= 21 q=0.0 size=      96kB time=00:00:27.41 bitrate=  28.6kbits/s    frame=  721 fps= 21 q=0.0 size=      97kB time=00:00:27.87 bitrate=  28.5kbits/s    frame=  731 fps= 21 q=0.0 size=      98kB time=00:00:28.29 bitrate=  28.4kbits/s    frame=  742 fps= 21 q=0.0 size=      99kB time=00:00:28.75 bitrate=  28.3kbits/s    frame=  752 fps= 21 q=0.0 size=     100kB time=00:00:29.16 bitrate=  28.0kbits/s    frame=  763 fps= 21 q=0.0 size=     101kB time=00:00:29.62 bitrate=  27.8kbits/s    frame=  773 fps= 20 q=0.0 size=     102kB time=00:00:30.04 bitrate=  27.8kbits/s    frame=  784 fps= 20 q=0.0 size=     103kB time=00:00:30.50 bitrate=  27.7kbits/s    frame=  795 fps= 20 q=0.0 size=     103kB time=00:00:30.95 bitrate=  27.3kbits/s    frame=  805 fps= 20 q=0.0 size=     103kB time=00:00:31.37 bitrate=  27.0kbits/s    frame=  815 fps= 20 q=0.0 size=     105kB time=00:00:31.79 bitrate=  26.9kbits/s    frame=  826 fps= 20 q=0.0 size=     105kB time=00:00:32.25 bitrate=  26.6kbits/s    frame=  836 fps= 20 q=0.0 size=     106kB time=00:00:32.66 bitrate=  26.6kbits/s    frame=  846 fps= 20 q=0.0 size=     106kB time=00:00:33.08 bitrate=  26.3kbits/s    frame=  856 fps= 20 q=0.0 size=     107kB time=00:00:33.50 bitrate=  26.2kbits/s    frame=  867 fps= 20 q=0.0 size=     107kB time=00:00:33.95 bitrate=  25.9kbits/s    frame=  876 fps= 20 q=0.0 size=     109kB time=00:00:34.33 bitrate=  25.9kbits/s    frame=  886 fps= 20 q=0.0 size=     109kB time=00:00:34.75 bitrate=  25.7kbits/s    frame=  896 fps= 20 q=0.0 size=     109kB time=00:00:35.16 bitrate=  25.4kbits/s    frame=  907 fps= 20 q=0.0 size=     111kB time=00:00:35.62 bitrate=  25.5kbits/s    frame=  915 fps= 20 q=0.0 size=     112kB time=00:00:35.95 bitrate=  25.4kbits/s    frame=  924 fps= 20 q=0.0 size=     112kB time=00:00:36.33 bitrate=  25.3kbits/s    frame=  934 fps= 20 q=0.0 size=     112kB time=00:00:36.75 bitrate=  25.0kbits/s    frame=  944 fps= 20 q=0.0 size=     113kB time=00:00:37.16 bitrate=  24.9kbits/s    frame=  954 fps= 20 q=0.0 size=     113kB time=00:00:37.58 bitrate=  24.7kbits/s    frame=  963 fps= 20 q=0.0 size=     114kB time=00:00:37.95 bitrate=  24.5kbits/s    frame=  974 fps= 20 q=0.0 size=     114kB time=00:00:38.41 bitrate=  24.3kbits/s    frame=  984 fps= 20 q=0.0 size=     115kB time=00:00:38.83 bitrate=  24.2kbits/s    frame=  994 fps= 20 q=0.0 size=     115kB time=00:00:39.25 bitrate=  23.9kbits/s    frame= 1004 fps= 20 q=0.0 size=     115kB time=00:00:39.66 bitrate=  23.7kbits/s    frame= 1015 fps= 20 q=0.0 size=     116kB time=00:00:40.12 bitrate=  23.7kbits/s    frame= 1025 fps= 20 q=0.0 size=     117kB time=00:00:40.54 bitrate=  23.7kbits/s    frame= 1035 fps= 20 q=0.0 size=     119kB time=00:00:40.95 bitrate=  23.9kbits/s    frame= 1046 fps= 20 q=0.0 size=     119kB time=00:00:41.41 bitrate=  23.6kbits/s    frame= 1056 fps= 20 q=0.0 size=     120kB time=00:00:41.83 bitrate=  23.4kbits/s    frame= 1067 fps= 20 q=0.0 size=     120kB time=00:00:42.29 bitrate=  23.2kbits/s    frame= 1078 fps= 20 q=0.0 size=     120kB time=00:00:42.75 bitrate=  23.0kbits/s    frame= 1089 fps= 20 q=0.0 size=     120kB time=00:00:43.20 bitrate=  22.8kbits/s    frame= 1099 fps= 20 q=0.0 size=     120kB time=00:00:43.62 bitrate=  22.6kbits/s    frame= 1110 fps= 20 q=0.0 size=     121kB time=00:00:44.08 bitrate=  22.4kbits/s    frame= 1120 fps= 20 q=0.0 size=     121kB time=00:00:44.50 bitrate=  22.2kbits/s    frame= 1131 fps= 20 q=0.0 size=     122kB time=00:00:44.95 bitrate=  22.2kbits/s    frame= 1142 fps= 20 q=0.0 size=     122kB time=00:00:45.41 bitrate=  22.0kbits/s    frame= 1153 fps= 20 q=0.0 size=     123kB time=00:00:45.87 bitrate=  22.0kbits/s    frame= 1163 fps= 20 q=0.0 size=     125kB time=00:00:46.29 bitrate=  22.1kbits/s    frame= 1174 fps= 20 q=0.0 size=     125kB time=00:00:46.75 bitrate=  21.9kbits/s    frame= 1185 fps= 20 q=0.0 size=     125kB time=00:00:47.20 bitrate=  21.7kbits/s    frame= 1196 fps= 20 q=0.0 size=     125kB time=00:00:47.66 bitrate=  21.6kbits/s    frame= 1207 fps= 20 q=0.0 size=     126kB time=00:00:48.12 bitrate=  21.4kbits/s    frame= 1217 fps= 20 q=0.0 size=     126kB time=00:00:48.54 bitrate=  21.2kbits/s    frame= 1228 fps= 20 q=0.0 size=     126kB time=00:00:49.00 bitrate=  21.1kbits/s    frame= 1238 fps= 20 q=0.0 size=     126kB time=00:00:49.41 bitrate=  20.9kbits/s    frame= 1248 fps= 20 q=0.0 size=     127kB time=00:00:49.83 bitrate=  20.9kbits/s    frame= 1259 fps= 20 q=0.0 size=     128kB time=00:00:50.29 bitrate=  20.8kbits/s    frame= 1269 fps= 20 q=0.0 size=     129kB time=00:00:50.70 bitrate=  20.8kbits/s    frame= 1280 fps= 20 q=0.0 size=     129kB time=00:00:51.16 bitrate=  20.7kbits/s    frame= 1291 fps= 20 q=0.0 size=     129kB time=00:00:51.62 bitrate=  20.5kbits/s    frame= 1301 fps= 20 q=0.0 size=     129kB time=00:00:52.04 bitrate=  20.4kbits/s    frame= 1311 fps= 20 q=0.0 size=     130kB time=00:00:52.45 bitrate=  20.2kbits/s    frame= 1313 fps= 20 q=-1.0 Lsize=     152kB time=00:00:54.62 bitrate=  22.8kbits/s    
video:136kB audio:0kB subtitle:0kB other streams:0kB global headers:0kB muxing overhead: 11.725279%
[libx264 @ 0x267c8c0] frame I:66    Avg QP: 0.55  size:   991
[libx264 @ 0x267c8c0] frame P:393   Avg QP: 0.66  size:   134
[libx264 @ 0x267c8c0] frame B:854   Avg QP: 0.74  size:    24
[libx264 @ 0x267c8c0] consecutive B-frames: 10.9%  5.8%  4.1% 79.2%
[libx264 @ 0x267c8c0] mb I  I16..4: 89.5%  2.4%  8.1%
[libx264 @ 0x267c8c0] mb P  I16..4:  5.9%  0.2%  0.6%  P16..4:  0.7%  0.2%  0.1%  0.0%  0.0%    skip:92.3%
[libx264 @ 0x267c8c0] mb B  I16..4:  0.0%  0.0%  0.0%  B16..8:  0.3%  0.1%  0.0%  direct: 0.0%  skip:99.6%  L0:40.1% L1:58.0% BI: 1.9%
[libx264 @ 0x267c8c0] final ratefactor: -23.68
[libx264 @ 0x267c8c0] 8x8 transform intra:2.7% inter:28.4%
[libx264 @ 0x267c8c0] coded y,uvDC,uvAC intra: 4.4% 0.0% 0.0% inter: 0.2% 0.0% 0.0%
[libx264 @ 0x267c8c0] i16 v,h,dc,p: 88%  7%  4%  0%
[libx264 @ 0x267c8c0] i8 v,h,dc,ddl,ddr,vr,hd,vl,hu: 53% 23% 22%  1%  1%  0%  0%  0%  0%
[libx264 @ 0x267c8c0] i4 v,h,dc,ddl,ddr,vr,hd,vl,hu: 49% 22% 22%  3%  1%  0%  1%  0%  1%
[libx264 @ 0x267c8c0] i8c dc,h,v,p: 100%  0%  0%  0%
[libx264 @ 0x267c8c0] Weighted P-Frames: Y:11.5% UV:0.0%
[libx264 @ 0x267c8c0] ref P L0: 77.7%  9.0% 12.2%  1.2%
[libx264 @ 0x267c8c0] ref B L0: 87.7% 11.8%  0.5%
[libx264 @ 0x267c8c0] ref B L1: 98.6%  1.4%
[libx264 @ 0x267c8c0] kb/s:20.32
= 1503 fps= 20 q=0.0 size=     126kB time=00:01:00.45 bitrate=  17.1kbits/s    frame= 1514 fps= 20 q=0.0 size=     127kB time=00:01:00.91 bitrate=  17.0kbits/s    frame= 1524 fps= 20 q=0.0 size=     127kB time=00:01:01.33 bitrate=  16.9kbits/s    frame= 1534 fps= 20 q=0.0 size=     127kB time=00:01:01.75 bitrate=  16.9kbits/s    frame= 1544 fps= 20 q=0.0 size=     130kB time=00:01:02.16 bitrate=  17.1kbits/s    frame= 1554 fps= 20 q=0.0 size=     130kB time=00:01:02.58 bitrate=  17.0kbits/s    frame= 1564 fps= 20 q=0.0 size=     132kB time=00:01:03.00 bitrate=  17.1kbits/s    frame= 1575 fps= 20 q=0.0 size=     134kB time=00:01:03.45 bitrate=  17.3kbits/s    frame= 1585 fps= 20 q=0.0 size=     136kB time=00:01:03.87 bitrate=  17.4kbits/s    frame= 1596 fps= 20 q=0.0 size=     137kB time=00:01:04.33 bitrate=  17.5kbits/s    frame= 1606 fps= 20 q=0.0 size=     140kB time=00:01:04.75 bitrate=  17.7kbits/s    frame= 1617 fps= 20 q=0.0 size=     143kB time=00:01:05.20 bitrate=  17.9kbits/s    frame= 1628 fps= 20 q=0.0 size=     143kB time=00:01:05.66 bitrate=  17.8kbits/s    frame= 1638 fps= 20 q=0.0 size=     143kB time=00:01:06.08 bitrate=  17.7kbits/s    frame= 1649 fps= 20 q=0.0 size=     144kB time=00:01:06.54 bitrate=  17.7kbits/s    frame= 1659 fps= 20 q=0.0 size=     146kB time=00:01:06.95 bitrate=  17.8kbits/s    frame= 1669 fps= 20 q=0.0 size=     146kB time=00:01:07.37 bitrate=  17.7kbits/s    frame= 1680 fps= 20 q=0.0 size=     147kB time=00:01:07.83 bitrate=  17.8kbits/s    frame= 1690 fps= 20 q=0.0 size=     150kB time=00:01:08.25 bitrate=  18.0kbits/s    frame= 1701 fps= 20 q=0.0 size=     151kB time=00:01:08.70 bitrate=  18.0kbits/s    frame= 1712 fps= 20 q=0.0 size=     151kB time=00:01:09.16 bitrate=  17.9kbits/s    frame= 1722 fps= 20 q=0.0 size=     152kB time=00:01:09.58 bitrate=  17.9kbits/s    frame= 1733 fps= 20 q=0.0 size=     153kB time=00:01:10.04 bitrate=  17.9kbits/s    frame= 1744 fps= 20 q=0.0 size=     155kB time=00:01:10.50 bitrate=  18.1kbits/s    frame= 1754 fps= 20 q=0.0 size=     158kB time=00:01:10.91 bitrate=  18.3kbits/s    frame= 1765 fps= 20 q=0.0 size=     159kB time=00:01:11.37 bitrate=  18.2kbits/s    frame= 1776 fps= 20 q=0.0 size=     160kB time=00:01:11.83 bitrate=  18.3kbits/s    frame= 1787 fps= 20 q=0.0 size=     161kB time=00:01:12.29 bitrate=  18.3kbits/s    frame= 1798 fps= 20 q=0.0 size=     161kB time=00:01:12.75 bitrate=  18.2kbits/s    frame= 1809 fps= 20 q=0.0 size=     162kB time=00:01:13.20 bitrate=  18.2kbits/s    frame= 1819 fps= 20 q=0.0 size=     163kB time=00:01:13.62 bitrate=  18.2kbits/s    frame= 1829 fps= 20 q=0.0 size=     165kB time=00:01:14.04 bitrate=  18.2kbits/s    frame= 1839 fps= 20 q=0.0 size=     165kB time=00:01:14.45 bitrate=  18.1kbits/s    frame= 1850 fps= 20 q=0.0 size=     166kB time=00:01:14.91 bitrate=  18.1kbits/s    frame= 1860 fps= 20 q=0.0 size=     166kB time=00:01:15.33 bitrate=  18.1kbits/s    frame= 1871 fps= 20 q=0.0 size=     166kB time=00:01:15.79 bitrate=  18.0kbits/s    frame= 1881 fps= 20 q=0.0 size=     167kB time=00:01:16.20 bitrate=  18.0kbits/s    frame= 1892 fps= 20 q=0.0 size=     170kB time=00:01:16.66 bitrate=  18.2kbits/s    frame= 1902 fps= 20 q=0.0 size=     171kB time=00:01:17.08 bitrate=  18.1kbits/s    frame= 1913 fps= 20 q=0.0 size=     171kB time=00:01:17.54 bitrate=  18.1kbits/s    frame= 1923 fps= 20 q=0.0 size=     173kB time=00:01:17.95 bitrate=  18.2kbits/s    frame= 1934 fps= 20 q=0.0 size=     175kB time=00:01:18.41 bitrate=  18.3kbits/s    frame= 1944 fps= 20 q=0.0 size=     178kB time=00:01:18.83 bitrate=  18.5kbits/s    frame= 1954 fps= 20 q=0.0 size=     178kB time=00:01:19.25 bitrate=  18.4kbits/s    frame= 1965 fps= 20 q=0.0 size=     178kB time=00:01:19.70 bitrate=  18.3kbits/s    frame= 1976 fps= 20 q=0.0 size=     180kB time=00:01:20.16 bitrate=  18.4kbits/s    frame= 1987 fps= 20 q=0.0 size=     180kB time=00:01:20.62 bitrate=  18.3kbits/s    frame= 1998 fps= 20 q=0.0 size=     181kB time=00:01:21.08 bitrate=  18.2kbits/s    frame= 2009 fps= 20 q=0.0 size=     182kB time=00:01:21.54 bitrate=  18.3kbits/s    frame= 2020 fps= 20 q=0.0 size=     182kB time=00:01:22.00 bitrate=  18.2kbits/s    frame= 2030 fps= 20 q=0.0 size=     182kB time=00:01:22.41 bitrate=  18.1kbits/s    frame= 2040 fps= 20 q=0.0 size=     185kB time=00:01:22.83 bitrate=  18.3kbits/s    frame= 2050 fps= 20 q=0.0 size=     187kB time=00:01:23.25 bitrate=  18.4kbits/s    frame= 2061 fps= 20 q=0.0 size=     189kB time=00:01:23.70 bitrate=  18.5kbits/s    frame= 2072 fps= 20 q=0.0 size=     193kB time=00:01:24.16 bitrate=  18.8kbits/s    frame= 2082 fps= 20 q=0.0 size=     195kB time=00:01:24.58 bitrate=  18.9kbits/s    frame= 2092 fps= 20 q=0.0 size=     197kB time=00:01:25.00 bitrate=  19.0kbits/s    frame= 2103 fps= 20 q=0.0 size=     197kB time=00:01:25.45 bitrate=  18.9kbits/s    frame= 2110 fps= 20 q=-1.0 Lsize=     229kB time=00:01:27.83 bitrate=  21.4kbits/s    
video:204kB audio:0kB subtitle:0kB other streams:0kB global headers:0kB muxing overhead: 12.431800%
[libx264 @ 0x267c8c0] frame I:78    Avg QP: 0.58  size:  1223
[libx264 @ 0x267c8c0] frame P:612   Avg QP: 0.69  size:   134
[libx264 @ 0x267c8c0] frame B:1420  Avg QP: 1.12  size:    21
[libx264 @ 0x267c8c0] consecutive B-frames:  8.4%  4.3%  3.7% 83.6%
[libx264 @ 0x267c8c0] mb I  I16..4: 86.0%  4.0% 10.0%
[libx264 @ 0x267c8c0] mb P  I16..4:  6.2%  0.3%  0.6%  P16..4:  0.5%  0.2%  0.1%  0.0%  0.0%    skip:92.1%
[libx264 @ 0x267c8c0] mb B  I16..4:  0.0%  0.0%  0.0%  B16..8:  0.1%  0.0%  0.0%  direct: 0.0%  skip:99.8%  L0:50.5% L1:45.9% BI: 3.6%
[libx264 @ 0x267c8c0] final ratefactor: -26.52
[libx264 @ 0x267c8c0] 8x8 transform intra:3.9% inter:26.7%
[libx264 @ 0x267c8c0] coded y,uvDC,uvAC intra: 5.4% 0.0% 0.0% inter: 0.1% 0.0% 0.0%
[libx264 @ 0x267c8c0] i16 v,h,dc,p: 88% 10%  2%  0%
[libx264 @ 0x267c8c0] i8 v,h,dc,ddl,ddr,vr,hd,vl,hu: 55% 14% 29%  0%  1%  0%  0%  0%  0%
[libx264 @ 0x267c8c0] i4 v,h,dc,ddl,ddr,vr,hd,vl,hu: 55% 19% 19%  2%  2%  1%  1%  0%  1%
[libx264 @ 0x267c8c0] i8c dc,h,v,p: 100%  0%  0%  0%
[libx264 @ 0x267c8c0] Weighted P-Frames: Y:7.2% UV:0.0%
[libx264 @ 0x267c8c0] ref P L0: 71.2%  9.9% 15.8%  3.0%
[libx264 @ 0x267c8c0] ref B L0: 89.1% 10.7%  0.2%
[libx264 @ 0x267c8c0] kb/s:18.92
e=00:01:32.58 bitrate=  23.8kbits/s    frame= 2284 fps= 20 q=0.0 size=     270kB time=00:01:33.00 bitrate=  23.8kbits/s    frame= 2295 fps= 20 q=0.0 size=     271kB time=00:01:33.45 bitrate=  23.7kbits/s    frame= 2305 fps= 20 q=0.0 size=     271kB time=00:01:33.87 bitrate=  23.6kbits/s    frame= 2316 fps= 20 q=0.0 size=     273kB time=00:01:34.33 bitrate=  23.7kbits/s    frame= 2327 fps= 20 q=0.0 size=     275kB time=00:01:34.79 bitrate=  23.8kbits/s    frame= 2337 fps= 20 q=0.0 size=     276kB time=00:01:35.20 bitrate=  23.7kbits/s    frame= 2347 fps= 20 q=0.0 size=     276kB time=00:01:35.62 bitrate=  23.7kbits/s    frame= 2358 fps= 20 q=0.0 size=     277kB time=00:01:36.08 bitrate=  23.6kbits/s    frame= 2368 fps= 20 q=0.0 size=     277kB time=00:01:36.50 bitrate=  23.5kbits/s    frame= 2379 fps= 20 q=0.0 size=     277kB time=00:01:36.95 bitrate=  23.4kbits/s    frame= 2390 fps= 20 q=0.0 size=     278kB time=00:01:37.41 bitrate=  23.4kbits/s    frame= 2400 fps= 20 q=0.0 size=     278kB time=00:01:37.83 bitrate=  23.3kbits/s    frame= 2411 fps= 20 q=0.0 size=     278kB time=00:01:38.29 bitrate=  23.2kbits/s    frame= 2422 fps= 20 q=0.0 size=     278kB time=00:01:38.75 bitrate=  23.1kbits/s    frame= 2432 fps= 20 q=0.0 size=     279kB time=00:01:39.16 bitrate=  23.0kbits/s    frame= 2443 fps= 20 q=0.0 size=     279kB time=00:01:39.62 bitrate=  22.9kbits/s    frame= 2454 fps= 20 q=0.0 size=     279kB time=00:01:40.08 bitrate=  22.8kbits/s    frame= 2465 fps= 20 q=0.0 size=     279kB time=00:01:40.54 bitrate=  22.7kbits/s    frame= 2476 fps= 20 q=0.0 size=     279kB time=00:01:41.00 bitrate=  22.7kbits/s    frame= 2486 fps= 20 q=0.0 size=     282kB time=00:01:41.41 bitrate=  22.8kbits/s    frame= 2496 fps= 20 q=0.0 size=     283kB time=00:01:41.83 bitrate=  22.8kbits/s    frame= 2506 fps= 20 q=0.0 size=     284kB time=00:01:42.25 bitrate=  22.7kbits/s    frame= 2517 fps= 20 q=0.0 size=     284kB time=00:01:42.70 bitrate=  22.6kbits/s    frame= 2527 fps= 20 q=0.0 size=     285kB time=00:01:43.12 bitrate=  22.6kbits/s    frame= 2537 fps= 20 q=0.0 size=     285kB time=00:01:43.54 bitrate=  22.6kbits/s    frame= 2548 fps= 20 q=0.0 size=     287kB time=00:01:44.00 bitrate=  22.6kbits/s    frame= 2558 fps= 20 q=0.0 size=     287kB time=00:01:44.41 bitrate=  22.5kbits/s    frame= 2569 fps= 20 q=0.0 size=     287kB time=00:01:44.87 bitrate=  22.4kbits/s    frame= 2579 fps= 20 q=0.0 size=     290kB time=00:01:45.29 bitrate=  22.6kbits/s    frame= 2590 fps= 20 q=0.0 size=     292kB time=00:01:45.75 bitrate=  22.6kbits/s    frame= 2600 fps= 20 q=0.0 size=     292kB time=00:01:46.16 bitrate=  22.5kbits/s    frame= 2611 fps= 20 q=0.0 size=     292kB time=00:01:46.62 bitrate=  22.4kbits/s    frame= 2621 fps= 20 q=0.0 size=     292kB time=00:01:47.04 bitrate=  22.4kbits/s    frame= 2632 fps= 20 q=0.0 size=     292kB time=00:01:47.50 bitrate=  22.3kbits/s    frame= 2642 fps= 20 q=0.0 size=     294kB time=00:01:47.91 bitrate=  22.3kbits/s    frame= 2652 fps= 20 q=0.0 size=     295kB time=00:01:48.33 bitrate=  22.3kbits/s    frame= 2663 fps= 20 q=0.0 size=     295kB time=00:01:48.79 bitrate=  22.2kbits/s    frame= 2673 fps= 20 q=0.0 size=     296kB time=00:01:49.20 bitrate=  22.2kbits/s    frame= 2684 fps= 20 q=0.0 size=     297kB time=00:01:49.66 bitrate=  22.2kbits/s    frame= 2694 fps= 20 q=0.0 size=     297kB time=00:01:50.08 bitrate=  22.1kbits/s    frame= 2704 fps= 20 q=0.0 size=     299kB time=00:01:50.50 bitrate=  22.2kbits/s    frame= 2715 fps= 20 q=0.0 size=     300kB time=00:01:50.95 bitrate=  22.1kbits/s    frame= 2725 fps= 20 q=0.0 size=     301kB time=00:01:51.37 bitrate=  22.1kbits/s    frame= 2735 fps= 20 q=0.0 size=     301kB time=00:01:51.79 bitrate=  22.1kbits/s    frame= 2745 fps= 20 q=0.0 size=     303kB time=00:01:52.20 bitrate=  22.1kbits/s    frame= 2756 fps= 20 q=0.0 size=     305kB time=00:01:52.66 bitrate=  22.2kbits/s    frame= 2767 fps= 20 q=0.0 size=     305kB time=00:01:53.12 bitrate=  22.1kbits/s    frame= 2777 fps= 20 q=0.0 size=     305kB time=00:01:53.54 bitrate=  22.0kbits/s    frame= 2787 fps= 20 q=0.0 size=     305kB time=00:01:53.95 bitrate=  22.0kbits/s    frame= 2798 fps= 20 q=0.0 size=     306kB time=00:01:54.41 bitrate=  21.9kbits/s    frame= 2809 fps= 20 q=0.0 size=     306kB time=00:01:54.87 bitrate=  21.9kbits/s    frame= 2819 fps= 20 q=0.0 size=     308kB time=00:01:55.29 bitrate=  21.9kbits/s    frame= 2830 fps= 20 q=0.0 size=     308kB time=00:01:55.75 bitrate=  21.8kbits/s    frame= 2841 fps= 20 q=0.0 size=     309kB time=00:01:56.20 bitrate=  21.8kbits/s    frame= 2851 fps= 20 q=0.0 size=     309kB time=00:01:56.62 bitrate=  21.7kbits/s    frame= 2862 fps= 20 q=0.0 size=     309kB time=00:01:57.08 bitrate=  21.6kbits/s    frame= 2872 fps= 20 q=0.0 size=     310kB time=00:01:57.50 bitrate=  21.6kbits/s    frame= 2882 fps= 20 q=0.0 size=     310kB time=00:01:57.91 bitrate=  21.5kbits/s    frame= 2892 fps= 20 q=0.0 size=     310kB time=00:01:58.33 bitrate=  21.5kbits/s    frame= 2903 fps= 20 q=0.0 size=     310kB time=00:01:58.79 bitrate=  21.4kbits/s    frame= 2914 fps= 20 q=0.0 size=     311kB time=00:01:59.25 bitrate=  21.4kbits/s    frame= 2925 fps= 20 q=0.0 size=     311kB time=00:01:59.70 bitrate=  21.3kbits/s    frame= 2935 fps= 20 q=0.0 size=     312kB time=00:02:00.12 bitrate=  21.2kbits/s    frame= 2945 fps= 20 q=0.0 size=     312kB time=00:02:00.54 bitrate=  21.2kbits/s    frame= 2956 fps= 20 q=0.0 size=     313kB time=00:02:01.00 bitrate=  21.2kbits/s    frame= 2966 fps= 20 q=0.0 size=     313kB time=00:02:01.41 bitrate=  21.1kbits/s    frame= 2977 fps= 20 q=0.0 size=     313kB time=00:02:01.87 bitrate=  21.0kbits/s    frame= 2988 fps= 20 q=0.0 size=     313kB time=00:02:02.33 bitrate=  21.0kbits/s    frame= 2999 fps= 20 q=0.0 size=     313kB time=00:02:02.79 bitrate=  20.9kbits/s    frame= 3010 fps= 20 q=0.0 size=     314kB time=00:02:03.25 bitrate=  20.8kbits/s    frame= 3021 fps= 20 q=0.0 size=     314kB time=00:02:03.70 bitrate=  20.8kbits/s    frame= 3031 fps= 20 q=0.0 size=     314kB time=00:02:04.12 bitrate=  20.7kbits/s    frame= 3041 fps= 20 q=0.0 size=     314kB time=00:02:04.54 bitrate=  20.7kbits/s    frame= 3051 fps= 20 q=0.0 size=     315kB time=00:02:04.95 bitrate=  20.7kbits/s    frame= 3062 fps= 20 q=0.0 size=     315kB time=00:02:05.41 bitrate=  20.6kbits/s    frame= 3073 fps= 20 q=0.0 size=     316kB time=00:02:05.87 bitrate=  20.5kbits/s    frame= 3083 fps= 20 q=0.0 size=     316kB time=00:02:06.29 bitrate=  20.5kbits/s    frame= 3093 fps= 20 q=0.0 size=     316kB time=00:02:06.70 bitrate=  20.5kbits/s    frame= 3104 fps= 20 q=0.0 size=     317kB time=00:02:07.16 bitrate=  20.4kbits/s    frame= 3114 fps= 20 q=0.0 size=     318kB time=00:02:07.58 bitrate=  20.4kbits/s    frame= 3125 fps= 20 q=0.0 size=     319kB time=00:02:08.04 bitrate=  20.4kbits/s    frame= 3135 fps= 20 q=0.0 size=     320kB time=00:02:08.45 bitrate=  20.4kbits/s    frame= 3145 fps= 20 q=0.0 size=     320kB time=00:02:08.87 bitrate=  20.3kbits/s    frame= 3156 fps= 20 q=0.0 size=     320kB time=00:02:09.33 bitrate=  20.3kbits/s    frame= 3166 fps= 20 q=0.0 size=     320kB time=00:02:09.75 bitrate=  20.2kbits/s    frame= 3176 fps= 20 q=0.0 size=     321kB time=00:02:10.16 bitrate=  20.2kbits/s    frame= 3186 fps= 20 q=0.0 size=     322kB time=00:02:10.58 bitrate=  20.2kbits/s    frame= 3197 fps= 20 q=0.0 size=     323kB time=00:02:11.04 bitrate=  20.2kbits/s    frame= 3207 fps= 20 q=0.0 size=     324kB time=00:02:11.45 bitrate=  20.2kbits/s    frame= 3217 fps= 20 q=0.0 size=     324kB time=00:02:11.87 bitrate=  20.1kbits/s    frame= 3227 fps= 20 q=0.0 size=     325kB time=00:02:12.29 bitrate=  20.1kbits/s    frame= 3238 fps= 20 q=0.0 size=     327kB time=00:02:12.75 bitrate=  20.2kbits/s    frame= 3249 fps= 20 q=0.0 size=     327kB time=00:02:13.20 bitrate=  20.1kbits/s    frame= 3259 fps= 20 q=0.0 size=     328kB time=00:02:13.62 bitrate=  20.1kbits/s    frame= 3269 fps= 20 q=0.0 size=     328kB time=00:02:14.04 bitrate=  20.0kbits/s    [NULL @ 0x2679c40] Invalid maxval: 0
    Last message repeated 1 times
frame= 3279 fps= 20 q=0.0 size=     330kB time=00:02:14.45 bitrate=  20.1kbits/s    frame= 3290 fps= 20 q=0.0 size=     330kB time=00:02:14.91 bitrate=  20.1kbits/s    frame= 3301 fps= 20 q=0.0 size=     331kB time=00:02:15.37 bitrate=  20.0kbits/s    frame= 3312 fps= 20 q=0.0 size=     331kB time=00:02:15.83 bitrate=  20.0kbits/s    frame= 3323 fps= 20 q=0.0 size=     331kB time=00:02:16.29 bitrate=  19.9kbits/s    frame= 3333 fps= 20 q=0.0 size=     331kB time=00:02:16.70 bitrate=  19.9kbits/s    frame= 3343 fps= 20 q=0.0 size=     331kB time=00:02:17.12 bitrate=  19.8kbits/s    frame= 3354 fps= 20 q=0.0 size=     334kB time=00:02:17.58 bitrate=  19.9kbits/s    frame= 3364 fps= 20 q=0.0 size=     334kB time=00:02:18.00 bitrate=  19.8kbits/s    frame= 3374 fps= 20 q=0.0 size=     334kB time=00:02:18.41 bitrate=  19.8kbits/s    frame= 3385 fps= 20 q=0.0 size=     336kB time=00:02:18.87 bitrate=  19.8kbits/s    frame= 3396 fps= 20 q=0.0 size=     339kB time=00:02:19.33 bitrate=  19.9kbits/s    frame= 3406 fps= 20 q=0.0 size=     339kB time=00:02:19.75 bitrate=  19.9kbits/s    frame= 3416 fps= 20 q=0.0 size=     339kB time=00:02:20.16 bitrate=  19.8kbits/s    frame= 3426 fps= 20 q=0.0 size=     340kB time=00:02:20.58 bitrate=  19.8kbits/s    frame= 3437 fps= 20 q=0.0 size=     341kB time=00:02:21.04 bitrate=  19.8kbits/s    frame= 3448 fps= 20 q=0.0 size=     341kB time=00:02:21.50 bitrate=  19.7kbits/s    frame= 3459 fps= 20 q=0.0 size=     343kB time=00:02:21.95 bitrate=  19.8kbits/s    frame= 3469 fps= 20 q=0.0 size=     344kB time=00:02:22.37 bitrate=  19.8kbits/s    frame= 3479 fps= 20 q=0.0 size=     345kB time=00:02:22.79 bitrate=  19.8kbits/s    frame= 3490 fps= 20 q=0.0 size=     347kB time=00:02:23.25 bitrate=  19.9kbits/s    frame= 3500 fps= 20 q=0.0 size=     349kB time=00:02:23.66 bitrate=  19.9kbits/s    frame= 3511 fps= 20 q=0.0 size=     351kB time=00:02:24.12 bitrate=  19.9kbits/s    frame= 3521 fps= 20 q=0.0 size=     351kB time=00:02:24.54 bitrate=  19.9kbits/s    frame= 3532 fps= 20 q=0.0 size=     353kB time=00:02:25.00 bitrate=  20.0kbits/s    frame= 3543 fps= 20 q=0.0 size=     353kB time=00:02:25.45 bitrate=  19.9kbits/s    frame= 3553 fps= 20 q=0.0 size=     355kB time=00:02:25.87 bitrate=  19.9kbits/s    frame= 3563 fps= 20 q=0.0 size=     355kB time=00:02:26.29 bitrate=  19.9kbits/s    frame= 3574 fps= 20 q=0.0 size=     356kB time=00:02:26.75 bitrate=  19.9kbits/s    frame= 3585 fps= 20 q=0.0 size=     358kB time=00:02:27.20 bitrate=  19.9kbits/s    frame= 3595 fps= 20 q=0.0 size=     358kB time=00:02:27.62 bitrate=  19.9kbits/s    frame= 3606 fps= 20 q=0.0 size=     360kB time=00:02:28.08 bitrate=  19.9kbits/s    frame= 3616 fps= 20 q=0.0 size=     363kB time=00:02:28.50 bitrate=  20.0kbits/s    frame= 3627 fps= 20 q=0.0 size=     363kB time=00:02:28.95 bitrate=  20.0kbits/s    frame= 3637 fps= 20 q=0.0 size=     365kB time=00:02:29.37 bitrate=  20.0kbits/s    frame= 3647 fps= 20 q=0.0 size=     365kB time=00:02:29.79 bitrate=  20.0kbits/s    frame= 3658 fps= 20 q=0.0 size=     365kB time=00:02:30.25 bitrate=  19.9kbits/s    frame= 3669 fps= 20 q=0.0 size=     365kB time=00:02:30.70 bitrate=  19.9kbits/s    frame= 3679 fps= 20 q=0.0 size=     365kB time=00:02:31.12 bitrate=  19.8kbits/s    frame= 3689 fps= 20 q=0.0 size=     367kB time=00:02:31.54 bitrate=  19.8kbits/s    frame= 3700 fps= 20 q=0.0 size=     367kB time=00:02:32.00 bitrate=  19.8kbits/s    frame= 3711 fps= 20 q=0.0 size=     367kB time=00:02:32.45 bitrate=  19.7kbits/s    frame= 3721 fps= 20 q=0.0 size=     369kB time=00:02:32.87 bitrate=  19.8kbits/s    frame= 3732 fps= 20 q=0.0 size=     370kB time=00:02:33.33 bitrate=  19.8kbits/s    frame= 3742 fps= 20 q=0.0 size=     372kB time=00:02:33.75 bitrate=  19.8kbits/s    frame= 3753 fps= 20 q=0.0 size=     372kB time=00:02:34.20 bitrate=  19.7kbits/s    frame= 3764 fps= 20 q=0.0 size=     373kB time=00:02:34.66 bitrate=  19.8kbits/s    frame= 3774 fps= 20 q=0.0 size=     375kB time=00:02:35.08 bitrate=  19.8kbits/s    frame= 3784 fps= 20 q=0.0 size=     375kB time=00:02:35.50 bitrate=  19.7kbits/s    frame= 3794 fps= 20 q=0.0 size=     378kB time=00:02:35.91 bitrate=  19.9kbits/s    frame= 3805 fps= 20 q=0.0 size=     379kB time=00:02:36.37 bitrate=  19.9kbits/s    frame= 3815 fps= 20 q=0.0 size=     381kB time=00:02:36.79 bitrate=  19.9kbits/s    frame= 3826 fps= 20 q=0.0 size=     382kB time=00:02:37.25 bitrate=  19.9kbits/s    frame= 3836 fps= 20 q=0.0 size=     384kB time=00:02:37.66 bitrate=  20.0kbits/s    frame= 3846 fps= 20 q=0.0 size=     384kB time=00:02:38.08 bitrate=  19.9kbits/s    frame= 3856 fps= 20 q=0.0 size=     386kB time=00:02:38.50 bitrate=  19.9kbits/s    frame= 3866 fps= 20 q=0.0 size=     386kB time=00:02:38.91 bitrate=  19.9kbits/s    frame= 3877 fps= 20 q=0.0 size=     389kB time=00:02:39.37 bitrate=  20.0kbits/s    frame= 3888 fps= 20 q=0.0 size=     390kB time=00:02:39.83 bitrate=  20.0kbits/s    frame= 3898 fps= 20 q=0.0 size=     390kB time=00:02:40.25 bitrate=  20.0kbits/s    frame= 3909 fps= 20 q=0.0 size=     392kB time=00:02:40.70 bitrate=  20.0kbits/s    frame= 3920 fps= 20 q=0.0 size=     392kB time=00:02:41.16 bitrate=  19.9kbits/s    frame= 3930 fps= 20 q=0.0 size=     392kB time=00:02:41.58 bitrate=  19.9kbits/s    frame= 3940 fps= 20 q=0.0 size=     394kB time=00:02:42.00 bitrate=  19.9kbits/s    frame= 3950 fps= 20 q=0.0 size=     395kB time=00:02:42.41 bitrate=  19.9kbits/s    frame= 3961 fps= 20 q=0.0 size=     397kB time=00:02:42.87 bitrate=  20.0kbits/s    frame= 3972 fps= 20 q=0.0 size=     397kB time=00:02:43.33 bitrate=  19.9kbits/s    frame= 3982 fps= 20 q=0.0 size=     398kB time=00:02:43.75 bitrate=  19.9kbits/s    frame= 3992 fps= 20 q=0.0 size=     399kB time=00:02:44.16 bitrate=  19.9kbits/s    frame= 4003 fps= 20 q=0.0 size=     401kB time=00:02:44.62 bitrate=  20.0kbits/s    frame= 4014 fps= 20 q=0.0 size=     402kB time=00:02:45.08 bitrate=  19.9kbits/s    frame= 4024 fps= 20 q=0.0 size=     405kB time=00:02:45.50 bitrate=  20.0kbits/s    frame= 4035 fps= 20 q=0.0 size=     406kB time=00:02:45.95 bitrate=  20.0kbits/s    frame= 4045 fps= 20 q=0.0 size=     406kB time=00:02:46.37 bitrate=  20.0kbits/s    frame= 4055 fps= 20 q=0.0 size=     406kB time=00:02:46.79 bitrate=  20.0kbits/s    frame= 4066 fps= 20 q=0.0 size=     406kB time=00:02:47.25 bitrate=  19.9kbits/s    frame= 4077 fps= 20 q=0.0 size=     408kB time=00:02:47.70 bitrate=  19.9kbits/s    frame= 4088 fps= 20 q=0.0 size=     410kB time=00:02:48.16 bitrate=  20.0kbits/s    frame= 4098 fps= 20 q=0.0 size=     410kB time=00:02:48.58 bitrate=  19.9kbits/s    frame= 4109 fps= 20 q=0.0 size=     412kB time=00:02:49.04 bitrate=  20.0kbits/s    frame= 4120 fps= 20 q=0.0 size=     412kB time=00:02:49.50 bitrate=  19.9kbits/s    frame= 4131 fps= 20 q=0.0 size=     414kB time=00:02:49.95 bitrate=  19.9kbits/s    frame= 4141 fps= 20 q=0.0 size=     415kB time=00:02:50.37 bitrate=  19.9kbits/s    frame= 4151 fps= 20 q=0.0 size=     417kB time=00:02:50.79 bitrate=  20.0kbits/s    frame= 4161 fps= 20 q=0.0 size=     417kB time=00:02:51.20 bitrate=  19.9kbits/s    frame= 4172 fps= 20 q=0.0 size=     417kB time=00:02:51.66 bitrate=  19.9kbits/s    frame= 4182 fps= 20 q=0.0 size=     418kB time=00:02:52.08 bitrate=  19.9kbits/s    frame= 4193 fps= 20 q=0.0 size=     421kB time=00:02:52.54 bitrate=  20.0kbits/s    frame= 4203 fps= 20 q=0.0 size=     421kB time=00:02:52.95 bitrate=  20.0kbits/s    frame= 4214 fps= 20 q=0.0 size=     424kB time=00:02:53.41 bitrate=  20.0kbits/s    frame= 4224 fps= 20 q=0.0 size=     424kB time=00:02:53.83 bitrate=  20.0kbits/s    frame= 4235 fps= 20 q=0.0 size=     425kB time=00:02:54.29 bitrate=  20.0kbits/s    frame= 4245 fps= 20 q=0.0 size=     426kB time=00:02:54.70 bitrate=  20.0kbits/s    frame= 4256 fps= 20 q=0.0 size=     428kB time=00:02:55.16 bitrate=  20.0kbits/s    frame= 4267 fps= 20 q=0.0 size=     428kB time=00:02:55.62 bitrate=  20.0kbits/s    frame= 4278 fps= 20 q=0.0 size=     429kB time=00:02:56.08 bitrate=  20.0kbits/s    frame= 4288 fps= 20 q=0.0 size=     430kB time=00:02:56.50 bitrate=  20.0kbits/s    frame= 4299 fps= 20 q=0.0 size=     432kB time=00:02:56.95 bitrate=  20.0kbits/s    frame= 4309 fps= 20 q=0.0 size=     432kB time=00:02:57.37 bitrate=  20.0kbits/s    frame= 4320 fps= 20 q=0.0 size=     432kB time=00:02:57.83 bitrate=  19.9kbits/s    frame= 4331 fps= 20 q=0.0 size=     432kB time=00:02:58.29 bitrate=  19.9kbits/s    frame= 4342 fps= 20 q=0.0 size=     435kB time=00:02:58.75 bitrate=  19.9kbits/s    frame= 4352 fps= 20 q=0.0 size=     436kB time=00:02:59.16 bitrate=  19.9kbits/s    frame= 4363 fps= 20 q=0.0 size=     437kB time=00:02:59.62 bitrate=  19.9kbits/s    frame= 4374 fps= 20 q=0.0 size=     438kB time=00:03:00.08 bitrate=  19.9kbits/s    frame= 4384 fps= 20 q=0.0 size=     440kB time=00:03:00.50 bitrate=  20.0kbits/s    frame= 4394 fps= 20 q=0.0 size=     440kB time=00:03:00.91 bitrate=  19.9kbits/s    frame= 4405 fps= 20 q=0.0 size=     443kB time=00:03:01.37 bitrate=  20.0kbits/s    frame= 4415 fps= 20 q=0.0 size=     443kB time=00:03:01.79 bitrate=  20.0kbits/s    frame= 4426 fps= 20 q=0.0 size=     445kB time=00:03:02.25 bitrate=  20.0kbits/s    frame= 4436 fps= 20 q=0.0 size=     445kB time=00:03:02.66 bitrate=  20.0kbits/s    frame= 4447 fps= 20 q=0.0 size=     446kB time=00:03:03.12 bitrate=  19.9kbits/s    frame= 4457 fps= 20 q=0.0 size=     448kB time=00:03:03.54 bitrate=  20.0kbits/s    frame= 4467 fps= 20 q=0.0 size=     448kB time=00:03:03.95 bitrate=  19.9kbits/s    frame= 4478 fps= 20 q=0.0 size=     448kB time=00:03:04.41 bitrate=  19.9kbits/s    frame= 4489 fps= 20 q=0.0 size=     448kB time=00:03:04.87 bitrate=  19.9kbits/s    frame= 4500 fps= 20 q=0.0 size=     451kB time=00:03:05.33 bitrate=  20.0kbits/s    frame= 4511 fps= 20 q=0.0 size=     453kB time=00:03:05.79 bitrate=  20.0kbits/s    frame= 4521 fps= 20 q=0.0 size=     454kB time=00:03:06.20 bitrate=  20.0kbits/s    frame= 4532 fps= 20 q=0.0 size=     456kB time=00:03:06.66 bitrate=  20.0kbits/s    frame= 4542 fps= 20 q=0.0 size=     456kB time=00:03:07.08 bitrate=  20.0kbits/s    frame= 4552 fps= 20 q=0.0 size=     458kB time=00:03:07.50 bitrate=  20.0kbits/s    frame= 4562 fps= 20 q=0.0 size=     459kB time=00:03:07.91 bitrate=  20.0kbits/s    frame= 4572 fps= 20 q=0.0 size=     460kB time=00:03:08.33 bitrate=  20.0kbits/s    frame= 4583 fps= 20 q=0.0 size=     460kB time=00:03:08.79 bitrate=  20.0kbits/s    frame= 4594 fps= 20 q=0.0 size=     461kB time=00:03:09.25 bitrate=  19.9kbits/s    frame= 4604 fps= 20 q=0.0 size=     461kB time=00:03:09.66 bitrate=  19.9kbits/s    frame= 4615 fps= 20 q=0.0 size=     463kB time=00:03:10.12 bitrate=  19.9kbits/s    frame= 4625 fps= 20 q=0.0 size=     464kB time=00:03:10.54 bitrate=  20.0kbits/s    frame= 4635 fps= 20 q=0.0 size=     465kB time=00:03:10.95 bitrate=  20.0kbits/s    frame= 4646 fps= 20 q=0.0 size=     467kB time=00:03:11.41 bitrate=  20.0kbits/s    frame= 4657 fps= 20 q=0.0 size=     468kB time=00:03:11.87 bitrate=  20.0kbits/s    frame= 4668 fps= 20 q=0.0 size=     469kB time=00:03:12.33 bitrate=  20.0kbits/s    frame= 4679 fps= 20 q=0.0 size=     469kB time=00:03:12.79 bitrate=  19.9kbits/s    frame= 4689 fps= 20 q=0.0 size=     470kB time=00:03:13.20 bitrate=  19.9kbits/s    frame= 4699 fps= 20 q=0.0 size=     471kB time=00:03:13.62 bitrate=  19.9kbits/s    frame= 4710 fps= 20 q=0.0 size=     471kB time=00:03:14.08 bitrate=  19.9kbits/s    frame= 4720 fps= 20 q=0.0 size=     472kB time=00:03:14.50 bitrate=  19.9kbits/s    frame= 4731 fps= 20 q=0.0 size=     472kB time=00:03:14.95 bitrate=  19.8kbits/s    frame= 4741 fps= 20 q=0.0 size=     472kB time=00:03:15.37 bitrate=  19.8kbits/s    frame= 4751 fps= 20 q=0.0 size=     473kB time=00:03:15.79 bitrate=  19.8kbits/s    frame= 4762 fps= 20 q=0.0 size=     475kB time=00:03:16.25 bitrate=  19.8kbits/s    frame= 4763 fps= 20 q=-1.0 Lsize=     535kB time=00:03:18.37 bitrate=  22.1kbits/s    
video:479kB audio:0kB subtitle:0kB other streams:0kB global headers:0kB muxing overhead: 11.734486%
[libx264 @ 0x267c8c0] frame I:203   Avg QP: 0.33  size:  1122
[libx264 @ 0x267c8c0] frame P:1416  Avg QP: 0.69  size:   139
[libx264 @ 0x267c8c0] frame B:3144  Avg QP: 1.41  size:    20
[libx264 @ 0x267c8c0] consecutive B-frames:  9.3%  6.8%  3.3% 80.5%
[libx264 @ 0x267c8c0] mb I  I16..4: 87.8%  3.5%  8.7%
[libx264 @ 0x267c8c0] mb P  I16..4:  7.0%  0.2%  0.6%  P16..4:  0.5%  0.1%  0.1%  0.0%  0.0%    skip:91.6%
[libx264 @ 0x267c8c0] mb B  I16..4:  0.0%  0.0%  0.0%  B16..8:  0.1%  0.0%  0.0%  direct: 0.0%  skip:99.8%  L0:33.9% L1:64.3% BI: 1.7%
[libx264 @ 0x267c8c0] final ratefactor: -28.72
[libx264 @ 0x267c8c0] 8x8 transform intra:3.0% inter:27.4%
[libx264 @ 0x267c8c0] coded y,uvDC,uvAC intra: 4.5% 0.0% 0.0% inter: 0.1% 0.0% 0.0%
[libx264 @ 0x267c8c0] i16 v,h,dc,p: 89%  8%  3%  0%
[libx264 @ 0x267c8c0] i8 v,h,dc,ddl,ddr,vr,hd,vl,hu: 66% 11% 22%  0%  0%  0%  0%  0%  0%
[libx264 @ 0x267c8c0] i4 v,h,dc,ddl,ddr,vr,hd,vl,hu: 54% 17% 20%  3%  2%  0%  1%  0%  1%
[libx264 @ 0x267c8c0] i8c dc,h,v,p: 100%  0%  0%  0%
[libx264 @ 0x267c8c0] Weighted P-Frames: Y:8.8% UV:0.0%
[libx264 @ 0x267c8c0] ref P L0: 65.9% 15.9% 13.7%  4.3%  0.1%
[libx264 @ 0x267c8c0] ref B L0: 85.0% 13.2%  1.8%
[libx264 @ 0x267c8c0] ref B L1: 98.2%  1.8%
[libx264 @ 0x267c8c0] kb/s:19.73
0] ref P L0: 79.7%  8.8% 10.3%  1.1%
[libx264 @ 0x267c8c0] ref B L0: 87.4% 12.2%  0.4%
[libx264 @ 0x267c8c0] ref B L1: 98.2%  1.8%
[libx264 @ 0x267c8c0] kb/s:26.26
